<?xml version="1.0" standalone="no"?>
<!DOCTYPE svg PUBLIC "-//W3C//DTD SVG 20010904//EN"
 "http://www.w3.org/TR/2001/REC-SVG-20010904/DTD/svg10.dtd">
<svg version="1.0" xmlns="http://www.w3.org/2000/svg"
 width="750.000000pt" height="750.000000pt" viewBox="0 0 750.000000 750.000000"
 preserveAspectRatio="xMidYMid meet">
<metadata>
Created by potrace 1.11, written by Peter Selinger 2001-2013
</metadata>
<g transform="translate(0.000000,750.000000) scale(0.100000,-0.100000)"
fill="#000000" stroke="none">
<path d="M3430 6847 c-3 -3 -66 -13 -140 -22 -245 -31 -544 -113 -747 -206
-23 -10 -44 -19 -48 -19 -12 0 -214 -104 -288 -148 -191 -115 -358 -232 -443
-309 -17 -15 -70 -62 -118 -103 -48 -41 -131 -124 -184 -185 -53 -60 -102
-114 -108 -120 -10 -9 -68 -87 -174 -232 -72 -99 -270 -450 -270 -479 0 -5
-12 -31 -26 -59 -14 -27 -27 -59 -30 -70 -2 -11 -15 -44 -29 -73 -14 -28 -25
-57 -25 -64 0 -6 -11 -43 -24 -82 -29 -84 -83 -312 -90 -376 -3 -25 -12 -90
-21 -145 -11 -73 -15 -182 -15 -405 0 -272 3 -324 26 -489 14 -102 29 -192 34
-200 4 -9 11 -32 14 -51 15 -87 67 -257 103 -338 12 -29 23 -58 23 -65 0 -6
14 -39 30 -72 17 -33 30 -67 30 -76 0 -9 8 -27 18 -40 10 -13 24 -40 32 -59
14 -35 97 -182 131 -232 11 -15 19 -30 19 -34 0 -10 167 -242 219 -304 85
-102 106 -125 196 -219 146 -151 326 -300 505 -418 30 -20 57 -40 58 -45 2 -4
7 -8 12 -8 4 0 39 -19 76 -42 79 -48 282 -153 334 -173 164 -63 218 -82 305
-112 55 -18 159 -46 230 -63 128 -28 160 -34 260 -46 28 -3 79 -10 115 -15 36
-5 184 -9 330 -9 224 0 293 4 445 25 250 33 458 84 630 154 28 11 86 34 130
52 173 68 358 170 548 301 54 38 102 68 108 68 5 0 9 4 9 8 0 5 21 24 48 43
82 59 412 369 412 387 0 2 28 36 63 76 35 39 69 81 77 93 8 11 47 66 87 122
40 55 79 113 88 128 9 16 27 46 40 68 52 85 139 250 172 328 73 173 148 396
174 516 11 52 22 98 24 102 5 7 20 111 30 204 4 33 11 89 16 125 12 88 11 516
-1 620 -6 47 -12 105 -15 130 -10 89 -17 127 -41 240 -28 131 -75 288 -110
371 -13 31 -24 62 -24 68 0 7 -13 41 -30 76 -16 35 -30 67 -30 70 0 8 -84 175
-108 215 -12 19 -29 51 -39 70 -24 48 -197 304 -247 365 -325 398 -697 697
-1116 897 -178 86 -441 179 -617 219 -223 50 -342 61 -698 66 -187 2 -342 2
-345 0z m-374 -1576 c82 -37 2260 -1324 2293 -1355 96 -90 95 -257 -3 -343
-17 -16 -540 -327 -1161 -693 -1041 -612 -1133 -664 -1181 -668 -29 -2 -68 -2
-87 2 -53 10 -124 63 -155 115 l-27 46 0 1370 0 1370 27 46 c63 108 193 156
294 110z"/>
</g>
</svg>
